<?xml version="1.0" standalone="no"?>
<!DOCTYPE svg PUBLIC "-//W3C//DTD SVG 20010904//EN"
 "http://www.w3.org/TR/2001/REC-SVG-20010904/DTD/svg10.dtd">
<svg version="1.0" xmlns="http://www.w3.org/2000/svg"
 width="260.000000pt" height="260.000000pt" viewBox="0 0 260.000000 260.000000"
 preserveAspectRatio="xMidYMid meet">

<g transform="translate(0.000000,260.000000) scale(0.100000,-0.100000)"
fill="#000000" stroke="none">
<path d="M1635 2559 c-38 -4 -83 -13 -100 -19 -18 -7 -88 -13 -170 -15 -94 -1
-159 -7 -199 -19 -216 -61 -420 -201 -483 -332 -9 -17 -37 -44 -67 -62 -123
-74 -222 -192 -246 -293 -7 -29 -27 -77 -45 -108 -43 -77 -55 -115 -55 -175 0
-91 32 -181 87 -246 30 -37 114 -80 154 -80 15 0 46 -9 70 -20 67 -30 133 -26
208 11 75 37 74 38 91 -73 15 -92 35 -123 92 -138 32 -9 43 -8 56 3 10 8 29
25 44 37 33 28 35 40 8 40 -11 0 -20 6 -20 13 1 17 58 56 190 125 204 108 379
167 610 207 52 9 97 19 100 22 3 3 -47 3 -110 -1 -162 -8 -366 -55 -495 -111
-116 -52 -240 -117 -311 -165 -42 -28 -77 -50 -79 -48 -1 2 -12 48 -24 103
l-21 99 28 36 c99 122 380 252 723 335 59 14 116 25 128 25 12 0 21 6 21 15 0
8 -2 15 -4 15 -22 0 -257 -46 -315 -61 -258 -69 -480 -178 -586 -288 -21 -23
-43 -41 -47 -41 -17 0 -29 45 -20 71 14 36 170 138 337 219 214 105 419 160
596 160 l70 0 16 -37 c78 -189 106 -253 109 -250 5 5 -13 97 -31 157 -7 25
-16 69 -19 97 -5 51 -4 54 25 69 50 25 109 85 135 136 26 52 32 125 12 161 -6
12 -12 56 -13 97 -3 186 -134 318 -330 332 -27 2 -81 1 -120 -3z m224 -101
c86 -36 138 -108 148 -202 3 -28 0 -69 -6 -90 -9 -36 -8 -41 14 -62 30 -28 30
-36 5 -92 -34 -75 -105 -122 -205 -138 l-48 -7 7 154 c3 85 8 171 12 192 9 53
-11 47 -29 -10 -23 -73 -36 -145 -43 -238 -4 -46 -10 -87 -13 -92 -6 -9 -171
-43 -208 -43 -18 0 -22 8 -27 58 -9 78 -56 212 -74 212 -8 0 -12 -6 -9 -14 26
-68 33 -223 12 -278 -3 -8 -27 -24 -53 -33 -26 -10 -89 -38 -141 -62 -90 -42
-95 -44 -143 -34 -70 15 -126 46 -181 100 -50 47 -106 138 -127 204 -6 20 -16
37 -21 37 -25 0 10 -137 55 -213 35 -61 113 -129 180 -158 31 -13 56 -26 56
-29 0 -3 -33 -33 -74 -67 -82 -69 -144 -93 -235 -93 -104 0 -169 31 -227 107
-67 87 -66 217 2 320 34 53 115 127 195 177 28 18 56 47 72 77 43 75 151 168
259 222 134 66 235 90 362 85 114 -5 171 -25 242 -84 75 -61 74 -40 -2 44 -52
58 -54 62 -32 66 86 19 212 12 277 -16z m-1439 -843 c12 -19 26 -35 31 -35 5
0 11 -11 15 -25 15 -62 146 -140 252 -151 61 -7 62 -8 72 -43 15 -55 13 -65
-21 -85 -54 -32 -99 -37 -144 -17 -23 10 -63 21 -90 26 -28 4 -62 13 -77 21
-85 44 -130 208 -87 321 12 32 24 29 49 -12z"/>
<path d="M1725 1300 c-298 -68 -605 -266 -755 -487 -80 -119 -95 -167 -95
-308 0 -116 1 -122 34 -190 47 -96 133 -181 233 -229 117 -56 194 -69 383 -63
137 4 176 9 275 35 198 53 349 140 474 273 l76 81 0 109 0 110 -52 -51 c-160
-153 -404 -281 -643 -336 -121 -28 -320 -25 -399 6 -109 42 -176 138 -176 249
0 74 37 208 81 293 81 155 259 308 439 377 174 67 340 25 310 -78 -5 -20 -5
-42 0 -57 8 -20 16 -24 47 -24 46 0 114 30 148 64 68 68 -5 183 -146 227 -74
23 -129 23 -234 -1z"/>
</g>
</svg>
